HIERARCHY
ROOT root
{
	OFFSET 0.000000 0.000000 0.000000
	CHANNELS 6 Xposition Yposition Zposition Zrotation Yrotation Xrotation
	JOINT lhip
	{
		OFFSET 0.058581 -0.082280 -0.017664
		CHANNELS 3 Zrotation Yrotation Xrotation
		JOINT lknee
		{
			OFFSET 0.043451 -0.386469 0.008037
			CHANNELS 3 Zrotation Yrotation Xrotation
			JOINT lankle
			{
				OFFSET -0.014790 -0.426874 -0.037428
				CHANNELS 3 Zrotation Yrotation Xrotation
				JOINT ltoe
				{
					OFFSET 0.041054 -0.060286 0.122042
					CHANNELS 3 Zrotation Yrotation Xrotation
					End Site
					{
						OFFSET 0.000000 0.000000 0.000000
					}
				}
			}
		}
	}
	JOINT rhip
	{
		OFFSET -0.060310 -0.090513 -0.013543
		CHANNELS 3 Zrotation Yrotation Xrotation
		JOINT rknee
		{
			OFFSET -0.043257 -0.383688 -0.004843
			CHANNELS 3 Zrotation Yrotation Xrotation
			JOINT rankle
			{
				OFFSET 0.019056 -0.420046 -0.034562
				CHANNELS 3 Zrotation Yrotation Xrotation
				JOINT rtoe
				{
					OFFSET -0.034840 -0.062106 0.130323
					CHANNELS 3 Zrotation Yrotation Xrotation
					End Site
					{
						OFFSET 0.000000 0.000000 0.000000
					}
				}
			}
		}
	}
	JOINT lowerback
	{
		OFFSET 0.004439 0.124404 -0.038385
		CHANNELS 3 Zrotation Yrotation Xrotation
		JOINT upperback
		{
			OFFSET 0.004488 0.137956 0.026820
			CHANNELS 3 Zrotation Yrotation Xrotation
			JOINT chest
			{
				OFFSET -0.002265 0.056032 0.002855
				CHANNELS 3 Zrotation Yrotation Xrotation
				JOINT lowerneck
				{
					OFFSET -0.013390 0.211636 -0.033468
					CHANNELS 3 Zrotation Yrotation Xrotation
					JOINT upperneck
					{
						OFFSET 0.010113 0.088937 0.050410
						CHANNELS 3 Zrotation Yrotation Xrotation
						End Site
						{
							OFFSET 0.000000 0.000000 0.000000
						}
					}
				}
				JOINT lclavicle
				{
					OFFSET 0.071702 0.114000 -0.018898
					CHANNELS 3 Zrotation Yrotation Xrotation
					JOINT lshoulder
					{
						OFFSET 0.122921 0.045205 -0.019046
						CHANNELS 3 Zrotation Yrotation Xrotation
						JOINT lelbow
						{
							OFFSET 0.255332 -0.015649 -0.022946
							CHANNELS 3 Zrotation Yrotation Xrotation
							JOINT lwrist
							{
								OFFSET 0.265709 0.012698 -0.007375
								CHANNELS 3 Zrotation Yrotation Xrotation
								End Site
								{
									OFFSET 0.000000 0.000000 0.000000
								}
							}
						}
					}
				}
				JOINT rclavicle
				{
					OFFSET -0.082954 0.112472 -0.023707
					CHANNELS 3 Zrotation Yrotation Xrotation
					JOINT rshoulder
					{
						OFFSET -0.113228 0.046853 -0.008472
						CHANNELS 3 Zrotation Yrotation Xrotation
						JOINT relbow
						{
							OFFSET -0.260127 -0.014369 -0.031269
							CHANNELS 3 Zrotation Yrotation Xrotation
							JOINT rwrist
							{
								OFFSET -0.269108 0.006794 -0.006027
								CHANNELS 3 Zrotation Yrotation Xrotation
								End Site
								{
									OFFSET 0.000000 0.000000 0.000000
								}
							}
						}
					}
				}
			}
		}
	}
}
MOTION
Frames: 11
Frame Time: 0.033333
0.567621 0.207725 1.029406 78.713277 -2.011126 96.272697 6.955081 -7.907394 -37.508646 -6.439025 11.471794 31.461230 5.849751 7.576746 -8.745934 0.000000 -0.000000 0.000000 -8.038599 -5.414969 21.817389 -4.532518 20.455364 18.059415 9.070184 -4.125283 21.337407 0.000000 -0.000000 0.000000 -2.462284 14.847369 8.956481 -1.082029 -0.859532 0.255092 -1.175106 2.641637 2.795834 -2.249757 -5.451015 -17.776756 0.891337 6.347189 0.244966 -26.038330 13.755622 0.256966 -55.364585 7.505344 11.409158 -155.918282 -69.841422 174.850251 29.255584 -9.189208 -17.895676 22.768590 2.790313 -3.108574 47.566983 14.352856 19.795561 -159.895106 66.843070 -145.454040 -15.184244 19.369675 -3.024960 
0.690060 0.211085 1.027623 80.536662 -2.058310 94.441998 3.839759 -8.125508 -30.860531 -3.929855 7.971531 16.105638 3.505379 9.824023 -8.352456 0.000000 -0.000000 0.000000 -4.987958 -2.114571 22.758182 -4.058302 16.930130 32.557860 7.563662 -7.284116 18.134401 0.000000 -0.000000 0.000000 -3.047550 11.048354 10.761948 -1.374520 0.363041 0.753628 -0.775442 3.184441 2.107877 -1.610959 -5.539531 -18.644396 1.039230 7.096698 -0.773488 -28.802114 12.349837 -0.986563 -54.061585 5.890976 12.116556 -164.438732 -70.023470 -177.004571 28.407046 -11.763468 -17.025848 23.374842 3.172004 -2.520656 47.635459 10.548333 21.251342 -162.552464 69.187395 -148.946061 -14.380110 20.268944 -2.784733 
0.808113 0.215753 1.013666 84.100908 -2.681152 93.190288 -0.588488 -7.159342 -27.541875 -2.527209 7.493974 14.171872 1.987746 10.060761 -7.903044 0.000000 -0.000000 0.000000 -3.328998 -2.362172 19.600611 -5.918092 10.579610 50.237823 8.582444 -10.131490 21.905786 0.000000 -0.000000 0.000000 -3.854857 8.430829 12.427745 -1.551947 -0.530916 0.570855 -0.696287 2.612228 2.095203 -1.099135 -5.587780 -18.124507 2.335393 8.251002 -2.291405 -29.809197 8.641738 -1.014554 -53.987301 2.222667 12.700552 -173.645059 -71.126721 -169.123660 28.644266 -12.218621 -15.943721 23.872173 3.090688 -2.496107 48.826916 5.977955 21.859244 -160.628054 74.116933 -148.628656 -14.746869 19.633840 -2.496035 
0.896610 0.217814 0.994246 86.317831 -3.291110 92.950578 -1.326196 -9.543931 -25.735956 -5.135197 5.256193 17.654245 8.570659 10.581530 -10.232890 0.000000 -0.000000 0.000000 -2.945158 -2.192776 15.170688 -4.929606 7.921096 64.579464 6.123637 -12.666834 23.858298 0.000000 -0.000000 0.000000 -5.131966 7.551776 12.240398 -0.970808 -1.359070 0.701138 -0.778712 1.297432 2.176865 -0.795226 -6.327500 -16.961798 3.258299 9.216474 -2.569698 -30.112099 5.672784 -0.648931 -53.346467 -1.630485 13.537450 178.932739 -71.408699 -162.783848 28.361351 -10.869204 -15.959030 24.133579 2.493134 -2.342077 50.585245 2.006844 23.057884 -149.886283 77.618929 -138.098545 -13.347958 18.918160 -2.871040 
1.043083 0.223820 0.955152 90.780496 -3.522035 90.794372 -4.549407 -10.935442 -22.937065 -6.754664 4.429047 33.883661 18.151838 15.223014 -26.385979 0.000000 -0.000000 0.000000 -2.928490 -2.323550 7.941560 -3.313978 3.230109 85.998502 4.952123 -15.295894 18.136849 0.000000 -0.000000 0.000000 -5.812663 5.164184 15.112045 0.308064 -3.452150 -0.945909 -1.014693 -0.313223 3.648779 -1.227213 -6.532595 -16.420286 3.706777 9.535333 -1.201561 -31.026522 -0.039669 -0.948222 -51.036499 -9.413358 14.385199 170.280943 -70.295416 -156.282180 30.852579 -11.270248 -15.007588 25.935860 1.624753 -2.573207 51.258761 -4.461163 23.462834 -119.670964 80.137473 -108.831432 -13.633710 19.597366 0.002235 
1.151328 0.228668 0.940943 91.464881 -2.861197 88.174418 -6.582184 -10.639028 -14.695196 -6.256911 2.310900 38.540071 17.270068 18.741603 -33.553867 0.000000 -0.000000 0.000000 -1.929984 0.656387 -1.213003 -2.604918 0.501994 98.669421 3.786448 -15.822941 14.989897 0.000000 -0.000000 0.000000 -5.425257 3.144268 21.224417 0.770931 -3.041688 -1.961588 -1.306095 -1.064462 3.649052 -1.668586 -3.370187 -18.986690 3.042047 7.403213 -1.245764 -31.014007 -4.310258 -3.453559 -49.044363 -17.447015 14.721124 163.322709 -70.267314 -150.721192 28.349624 -13.268589 -11.074399 28.437828 0.179398 -3.211056 51.863190 -8.709540 23.174363 -102.453873 77.863353 -90.567482 -12.243381 19.560547 3.672865 
1.266415 0.229434 0.943380 90.301585 -1.590479 87.402323 -7.861271 -5.207764 -3.725961 -5.954345 -3.774587 35.808612 15.741768 20.566001 -36.308427 0.000000 -0.000000 0.000000 -0.182279 2.943258 -13.344910 -2.347867 -0.375564 103.541619 2.036709 -16.669656 11.432273 0.000000 -0.000000 0.000000 -6.072188 -0.597837 22.368623 0.683455 -1.133525 -2.233688 -0.661866 -1.438083 4.127301 -2.973907 -1.179885 -17.928495 2.677507 8.808440 -3.683993 -30.510971 -6.027738 -4.637244 -47.367291 -24.235270 12.790319 160.308415 -70.189469 -147.188748 28.573250 -14.077504 -8.789158 29.034005 -1.499870 -2.658870 53.675687 -11.521464 21.353426 -91.924937 77.905498 -79.961258 -11.742596 19.361245 3.209427 
1.381911 0.232219 0.961323 93.064031 0.804627 87.042018 -5.430670 -1.223528 7.218089 -5.299979 -10.960443 30.430616 10.573899 17.669016 -32.091699 0.000000 -0.000000 0.000000 1.261540 3.797577 -22.823547 -3.104759 -3.899401 99.016980 3.762871 -14.382749 7.710442 0.000000 -0.000000 0.000000 -4.826896 -6.116147 24.198896 1.401659 -1.452702 -3.232872 -0.083274 -3.152368 3.621260 -3.926586 1.319098 -17.767078 1.953722 10.172382 -2.530301 -28.901769 -6.139008 -5.263164 -48.530898 -26.392439 12.013659 156.653938 -67.691644 -140.996969 27.817074 -14.924595 -10.321675 28.142695 -3.194740 -2.668809 54.287622 -14.153914 20.330629 -87.313609 79.895204 -74.925641 -11.577704 19.623814 0.550056 
1.503029 0.233629 0.987241 96.337369 2.691513 88.540527 -0.862824 -0.332044 15.871391 -4.756870 -15.709398 23.264793 4.425202 12.487296 -20.754509 0.000000 -0.000000 0.000000 0.539900 5.044241 -29.906148 -3.275232 -9.032206 86.955237 7.475235 -11.182891 6.297854 0.000000 -0.000000 0.000000 -3.614756 -10.957357 21.622781 2.628673 -2.408325 -1.663312 0.343635 -5.052397 2.441166 -4.361064 3.751704 -16.519991 0.928704 11.077162 -2.928669 -28.697120 -4.827477 -5.213619 -49.973107 -27.502763 13.131926 154.359204 -65.402155 -139.931294 26.609036 -16.767230 -12.912937 27.713198 -5.843433 -2.195041 53.006023 -15.225181 19.977863 -83.575685 82.467541 -71.674451 -10.282995 18.482981 0.073162 
1.626186 0.234055 1.013516 97.091239 4.364680 90.212341 3.908657 1.508034 23.176697 -2.470866 -17.251402 14.088654 -2.976453 8.290729 -2.255916 0.000000 -0.000000 0.000000 -0.078166 7.022247 -33.711212 -2.488072 -12.853572 69.782598 8.846364 -7.719405 3.293658 0.000000 -0.000000 0.000000 -2.035568 -14.943800 19.127681 2.844789 -1.775673 -0.702045 0.836782 -5.645449 0.827668 -4.494400 5.280888 -15.599133 0.873223 11.174800 -2.530103 -28.352120 -2.902493 -4.750195 -52.327699 -26.342474 14.801074 155.701137 -63.626989 -140.564791 24.656169 -14.735054 -12.659012 26.304902 -8.282610 -0.337723 52.771988 -16.327432 18.238365 -79.407367 84.809654 -67.294938 -9.216695 17.894133 -0.971273 
1.750508 0.235498 1.028881 96.960346 4.700789 91.929662 5.905139 3.075039 28.653060 0.602948 -16.986242 6.728836 -5.998760 6.854203 15.474743 0.000000 -0.000000 0.000000 -0.383172 7.270229 -34.296214 0.080239 -12.405981 48.368984 8.729141 -6.972803 0.890321 0.000000 -0.000000 0.000000 -0.988458 -16.489470 15.548166 3.016218 -1.862385 0.892018 1.326298 -5.904879 -0.490999 -5.096641 4.371971 -14.514036 1.573837 12.724399 -2.979891 -28.070791 -1.433170 -3.325301 -53.675666 -25.690232 15.298846 160.038091 -63.573260 -143.327241 25.244456 -14.218882 -12.285440 23.985467 -9.178719 2.222058 53.875570 -17.628940 16.448866 -85.562892 85.235307 -73.412638 -8.744955 17.795676 -2.037339 
